Patient4_TMGait_0pt7_01_left_10_EMG.mot
version=1
nRows=40
nColumns=33
inDegrees=no
endheader
time	1LAddLong	2LGlutMax	3LGlutMed	4LIliopsoas	5LSemiMemb	6LBicFemLong	7LRecFem	8LVastMed	9LVastLat	10LGasMed	11LTibAnt	12lTibPost	13LPeroneusLong	14LSol	15LExtDigLong	16LFlexDigLong	17RAddLong	18RGlutMax	19RGlutMed	20RIliopsoas	21RSemiMemb	22RBicFemLong	23RRecFem	24RVastMed	25RVastLat	26RGasMed	27RTibAnt	28RTibPost	29RPeroneusLong	30RSol	31RExtDigLong	32RFlexDigLong
12.698	0.010681	0.70053	-0.15854	-0.002441	0.027466	-0.012665	-0.049286	0.007324	0.067902	-0.060272	0.013428	-0.005646	0.068817	-0.032501	0.034485	-0.000916	0.022278	-0.10468	-0.22537	-0.032349	-0.030212	-0.09903	-0.010681	-0.12009	0.13565	-0.00351	-0.71518	-0.006866	0.19928	0.22293	-0.003662	0.002136
12.699	-0.001526	0.67841	-0.12619	0.005646	-0.036621	0.008392	-0.042419	0.002289	0.042419	-0.096741	0.017853	-0.013885	0.083313	-0.056458	0.042572	0.006866	0.009613	-0.10239	-0.24384	-0.16724	-0.020905	-0.074921	0.29785	-0.16022	0.03479	-0.008698	-0.91019	-0.009155	0.44479	0.1384	-0.00412	0.003052
12.7	0	0.69595	-0.005341	0.008087	-0.055237	-0.046387	-0.061951	0.001373	0.040894	-0.06897	-0.011292	-0.006256	0.068054	0.010071	0.054169	-0.000458	0.015106	-0.12253	-0.16769	-0.041351	-0.026093	-0.10819	0.41245	-0.20081	0.031738	-0.017395	-0.45395	-0.005035	0.35309	0.046692	-0.003967	-0.000916
12.701	0.013275	0.69794	-0.036316	0.009918	-0.006256	-0.086365	-0.046082	0.006866	0.042419	-0.025024	-0.015259	-0.005951	0.072937	-0.021057	0.077667	-0.000763	0.012054	-0.10895	0.011749	0.23712	-0.02182	-0.082245	0.014496	0.13916	0.10498	-0.014343	-0.037537	-0.006256	-0.32898	0.055237	-0.002594	0.002136
12.702	0.01709	0.74936	0.046844	0.020142	0.084991	-0.046082	-0.056152	0.00885	0.03479	0.012207	-0.009918	-0.006866	0.075073	-0.26733	0.090179	0.004883	0.012512	-0.015869	0.13962	0.33829	-0.001831	-0.050201	-0.28	0.37338	0.1297	-0.010071	-0.003967	-0.00946	-0.81696	-0.050201	-0.005798	-0.006256
12.703	0.012665	0.78857	0.009308	0.000458	0.071869	0.00351	-0.055389	-0.004425	0.036926	0.002289	-0.006104	-0.006561	0.049591	-0.26077	0.10773	0.008392	0.005798	-0.072784	0.01358	0.27206	-0.014496	-0.074921	-0.21927	0.26627	0.088501	-0.015717	0.11353	-0.008087	-0.50339	-0.11688	-0.004883	-0.005188
12.704	0.017395	0.7753	-0.1593	0.007172	0.037231	0.011902	-0.06546	0.005035	0.043335	-0.019684	-0.007935	-0.00946	-0.012207	-0.12451	0.16205	0.005035	0.010834	-0.079651	0.095978	0.21744	-0.012512	-0.073853	-0.26962	0.066223	0.083008	-0.015106	0.30121	-0.003815	-0.76263	-0.093231	-0.001221	-0.005646
12.705	0.003815	0.81589	-0.068665	0.004272	0.006714	0.00351	-0.087128	0.00824	0.039063	-0.003967	0.011139	-0.011292	0.036163	0.007019	0.13214	-0.002899	0.003204	-0.042572	0.28961	0.080872	-0.010681	-0.054321	-0.26947	-0.23407	0.083313	-0.008698	0.58807	-0.003204	-0.54016	-0.12711	-0.002899	-0.009003
12.706	0.002289	0.86243	0.032196	0.000458	0.006409	-0.009308	-0.10101	-0.001831	0.063629	-0.033264	0.005493	-0.018311	0.034485	0.052795	0.13412	-0.003815	-0.001831	-0.067902	-0.026398	0.028534	-0.013885	-0.062256	-0.20233	-0.56335	-0.058441	-0.001068	0.72388	0.000763	-0.82306	-0.16037	-0.006409	-0.007782
12.707	0.000305	0.83023	0.009308	-0.001831	0.00061	0.006561	-0.16235	0.001526	0.088806	-0.020142	-0.027161	-0.010681	0.053558	0.041809	0.23438	-0.003662	0.015564	-0.021362	0.022736	0.028076	-0.011292	-0.067596	0.082703	-0.68253	-0.1535	0.007477	0.1178	-0.005188	-0.099335	-0.11566	-0.003967	-0.005035
12.708	-0.00473	0.80337	0.092621	0.015411	-0.022125	0.017242	-0.21225	0.014496	0.098572	-0.012665	-0.016174	-0.009155	0.064545	0.053711	0.12863	-0.003204	0.014648	-0.1062	0.053253	0.012512	-0.012207	-0.062408	0.33325	-0.44128	-0.19272	-0.006714	-0.3302	-0.007477	-0.24521	-0.08606	-0.004578	-0.007324
12.709	0.000916	0.81161	-0.016937	0.010834	-0.015869	-0.00061	-0.23666	0.005951	0.083466	-0.024109	-0.020142	-0.003967	0.046082	-0.059509	0.40192	-0.005493	0.001984	-0.15717	0.023346	-0.001831	-0.002441	-0.03006	0.45517	-0.13901	-0.23972	-0.014343	-0.45029	-0.004578	-0.32913	-0.05127	-0.002747	-0.011902
12.71	0.010223	0.77957	-0.060272	0.011902	0.007477	-0.000305	-0.24765	0.008087	0.071411	-0.024719	-0.074768	-0.007019	0.033722	-0.2684	0.032959	0.010681	-0.009155	-0.17746	0.091553	-0.070038	-0.004883	-0.03479	0.63538	-0.097198	-0.28168	-0.01709	-0.41519	-0.007019	0.13611	-0.018311	-0.002747	-0.021973
12.711	0.003204	0.77057	-0.019989	0.010376	0.003662	-0.022888	-0.24918	0.006409	0.037537	-0.016632	-0.11704	-0.006409	0.014038	-0.22736	0.29236	0.005188	-0.017548	-0.067291	-0.05249	-0.19623	0.012665	-0.024719	0.30365	-0.20447	-0.23621	-0.031738	-0.32349	-0.009308	0.81604	0.023651	-0.004578	-0.019226
12.712	-0.015411	0.72708	-0.036621	0.007324	0.017853	0.001831	-0.23804	-0.002594	0.031128	-0.043182	0.064545	-0.007324	0.002289	-0.069275	-0.17364	-0.005341	-0.043335	-0.034943	-0.023804	-0.17181	0.03952	-0.005493	-0.29587	-0.159	0.002594	-0.029907	0.14969	-0.005798	0.60715	-0.031738	-0.003052	-0.021057
12.713	-0.003204	0.6189	0.041199	0.010376	0.001984	0.019226	-0.21576	-0.001068	0.013885	-0.041809	0.21271	-0.00473	0.00946	0.041199	-0.025024	0.003357	-0.022125	-0.073853	0.050659	-0.011444	0.027161	-0.019836	-0.27786	-0.022125	0.15198	-0.00946	0.36026	0.007782	0.42679	-0.14847	-0.003357	-0.006561
12.714	0.003357	0.55267	0.048523	0.005188	-0.047913	0.018921	-0.19989	0.017853	0.016632	-0.020905	0.30579	-0.007782	-0.003357	0.080719	0.18021	0.001984	-0.00351	-0.017548	-0.13718	0.13412	0.019836	-0.013733	0.12711	-0.014801	0.13123	0.001221	0.5423	-0.001984	0.32852	-0.24735	-0.002441	0.001984
12.715	-0.034485	0.51025	0.02121	-0.003967	0.008087	-0.006104	-0.16388	-0.000305	0.005341	-0.009003	0.14465	-0.009918	0.017242	0.024414	0.37781	0.006714	-0.004425	-0.046082	-0.1178	0.14221	0.005798	-0.023956	0.017395	-0.14679	-0.033875	-0.002899	0.36728	-0.001984	0.17807	-0.14313	-0.006409	0.005493
12.716	0.07431	0.50552	0.002899	0.005188	0.071716	0.019836	-0.14404	0.009918	0.011139	-0.010223	0.014343	-0.003967	0.021515	-0.16113	-0.13702	-0.004272	0.00824	-0.027771	0.068512	0.009766	0.005035	-0.028381	-0.20065	-0.099945	-0.13306	-0.001831	0.25726	-0.001984	0.10086	-0.08667	-0.006256	0.00061
12.717	-0.034027	0.52231	-0.05188	0.00946	0.007935	-0.002289	-0.11993	0.000153	0.012207	-0.022888	-0.11749	-0.002441	0.036316	-0.19836	-0.045013	0.00824	0.00473	-0.000153	0.30151	-0.046234	0.006866	-0.037079	-0.66101	0.079956	0.19821	0.002594	0.37125	-0.006256	-0.052948	-0.25177	-0.005188	-0.00473
12.718	-0.052032	0.51727	-0.08194	0.016632	-0.049286	-0.041046	-0.12482	-0.010529	0.008087	-0.064392	-0.11353	0.005646	0.089111	-0.15869	0.008087	-0.007172	0.008087	0.007019	-0.1326	-0.15533	0.012665	-0.059662	-0.54092	0.11627	0.21316	-0.002136	0.072632	-0.001831	-0.3418	-0.2417	-0.002747	0.003357
12.719	0.006409	0.53818	-0.12543	0.023651	-0.091553	-0.091095	-0.099335	0.005188	0.007172	-0.059814	-0.090942	0.006409	0.095978	-0.23758	-0.092163	-0.002747	0.010071	0.032806	-0.077209	-0.23666	-0.005493	-0.066833	-0.16403	0.078888	0.082703	-0.000458	-0.44922	-0.001221	-0.032959	-0.13382	-0.006714	0.001373
12.72	0.022736	0.50568	-0.12253	0.016937	-0.040741	-0.051575	-0.085907	0.000305	0.007324	-0.043182	-0.092316	0.003967	0.067291	-0.27145	-0.049286	0.002441	0.015259	-0.042114	0.1207	-0.16983	0.001068	-0.051117	-0.31143	-0.064392	-0.019989	0.001984	-0.68237	-0.007629	0.21103	-0.043182	-0.004425	0.005493
12.721	0.001526	0.52933	-0.043945	0.010834	0.020294	-0.063324	-0.06424	-0.000458	0.002747	-0.031128	-0.058289	0.002289	0.019989	-0.033722	0.1648	-0.003815	0.000305	-0.032043	0.31921	-0.099945	0.010834	-0.045776	-0.62698	-0.1445	0.52185	-0.007172	-0.2536	-0.003052	0.036011	0.072174	-0.011292	-0.002899
12.722	-0.002289	0.51254	0.00412	0.002441	0.024414	-0.030823	-0.067596	-0.005798	0.008392	-0.035858	-0.015411	-0.001068	0.00061	0.13458	0.21286	-0.005493	0.003204	-0.003204	0.059052	0.1294	0.01358	-0.044861	-0.45395	-0.074158	1.0483	-0.011444	-0.1004	-0.007019	0.018921	0.077667	-0.005951	-0.007172
12.723	0.00351	0.50903	0.059814	0.000916	0.020752	0.028687	-0.065918	0.045776	-0.002136	-0.052795	-0.005646	0.006256	0.027008	0.089874	0.39734	0.008545	0.024109	-0.06012	-0.082855	0.19119	0.00351	-0.04364	-0.25635	-0.27161	1.0854	-0.005341	0.30807	-0.00412	0.06485	0.14923	-0.00473	-0.011597
12.724	0.001526	0.47195	-0.034637	-0.001984	0.017548	0.037537	-0.065002	-0.000458	0.000305	-0.058746	-0.015717	0.003204	0.032806	0.005188	0.15167	-0.005646	0.02121	-0.030212	0.11169	0.23071	0.000458	-0.054321	-0.3215	-0.42221	0.94544	-0.005951	0.61295	-0.001221	-0.002289	0.2124	-0.004578	-0.005951
12.725	0.011902	0.47302	-0.066833	0.002441	0.001068	0.053558	-0.071869	0.005035	0.013885	-0.045471	-0.001831	0.002441	0.041351	-0.036469	0.16068	0.005493	0.023193	-0.055389	0.30441	0.21378	0.006256	-0.048981	-0.2359	-0.47867	0.6424	-0.010071	0.20584	-0.004578	0.062103	0.21042	-0.002136	-0.00824
12.726	0.007324	0.44601	-0.11292	0.014801	-0.028229	0.045319	-0.066376	0.010834	0.009003	-0.04425	-0.009766	0.002441	0.029602	-0.047913	0.037842	0.007172	-0.008087	-0.029602	0.72617	0.10925	0.015411	-0.036316	-0.37247	-0.45792	0.49866	-0.013123	0.060577	-0.002899	-0.14114	0.11597	-0.005798	-0.000305
12.727	0.012054	0.41885	-0.16678	0.016022	-0.001526	0.048218	-0.082703	0.006866	0.006714	-0.02655	-0.03006	-0.001984	0.017242	-0.070801	0.052338	0.009766	-0.000916	-0.078735	-0.10788	0.10681	0.016632	-0.041351	-0.034027	-0.19623	-0.17609	-0.020447	0.34149	0.000763	-0.21362	0.056763	-0.00412	-0.010529
12.728	-0.00061	0.36957	-0.14679	0.006104	0.033875	0.06134	-0.066833	0.003967	0.018158	-0.015106	-0.033569	0.001526	0.029297	-0.084076	0.10956	0.001068	0.000458	-0.075378	-0.42557	-0.005951	0.015869	-0.046692	0.24216	0.19409	-1.0455	-0.028381	0.52734	-0.001831	-0.15213	0.062408	-0.01358	-0.009003
12.729	0.006104	0.31281	-0.018158	0.011444	0.008698	0.062408	-0.060272	0.004883	0.026245	0.013428	-0.011139	0.005188	0.057678	-0.11032	0.13306	0.009766	0.020294	-0.059967	-0.090942	-0.019531	0.004425	-0.092621	0.46936	0.084381	-1.4383	-0.02655	0.70221	-0.000153	-0.16312	-0.020447	-0.008698	-0.009918
12.73	0.004883	0.28336	0.041656	0.004578	-0.003662	0.062561	-0.076904	-0.000153	0.013428	0.018616	0.030518	0.002136	0.061646	-0.12253	0.1471	0.002289	0.024719	-0.05127	-0.27664	-0.062561	0.00351	-0.075531	0.18219	-0.027313	-1.4601	-0.00946	0.72311	0.007172	0.793	-0.16892	-0.005493	-0.007935
12.731	0.007477	0.24338	-0.036926	0.008087	-0.023041	0.033417	-0.07431	-0.004272	0.022736	0.014343	0.052032	0.005798	0.053558	-0.16312	0.1648	0.006256	0.02121	-0.0914	-0.40359	-0.20813	0.000763	-0.08606	0.013885	0.14206	-1.0106	0.004425	0.021515	0.008392	1.2404	-0.28137	-0.003662	0.00351
12.732	0.011292	0.22049	-0.040436	-0.004883	-0.031586	0.007935	-0.084076	0.00473	0.017395	-0.003357	0.011902	0.004578	0.075989	-0.23331	0.17914	0.003204	0.00061	-0.022278	0.49362	-0.18921	0.022278	-0.04837	-0.32028	0.49515	-0.49255	0.006409	0.1265	0.005188	0.96313	-0.28488	0.003052	0.005798
12.733	0.003662	0.15854	-0.052338	0.005646	-0.0177	0.018921	-0.059662	0.002136	-0.001221	0.004578	0.007935	-0.000458	0.083313	-0.28473	0.18387	-0.005188	-0.024414	0.020905	0.43228	0.019226	0.031738	-0.027008	-0.52872	0.61127	-0.34912	0.007477	-0.67474	0.001984	0.3418	-0.16739	-0.005493	0.000305
12.734	-0.001373	0.15137	-0.075378	0.004578	-0.021973	0.025482	-0.051575	0.005035	-0.001373	-0.007172	-0.002136	0.006409	0.072632	-0.13306	0.19821	0.003357	-0.007629	0.017242	-0.03891	0.21408	0.029602	-0.030975	-0.457	0.55664	-0.083008	0.005493	-0.4451	0.003815	-0.31464	-0.08606	-0.010376	0.004425
12.735	-0.003357	0.094299	-0.063324	0.004272	-0.005035	0.029144	-0.048676	0.005493	0.003662	-0.016327	-0.006561	0.005951	0.006104	-0.031738	0.20721	0.007782	-0.007629	0.027466	0.92773	0.2211	0.014496	-0.062408	-0.20294	0.34729	0.12451	0.004883	-0.029144	0.001984	-1.5767	0.016479	-0.006104	-0.001526
12.736	-0.001984	0.057678	-0.15121	0.005646	-0.001068	0.05661	-0.071106	0.014191	-0.003815	-0.014496	0.000305	-0.005646	0.024872	0.036926	0.19379	0.008698	0.011597	-0.11826	0.14175	0.18234	-0.000916	-0.066376	0.10407	0.057678	0.014954	-0.001678	-0.66742	0.006409	-1.3635	0.10101	-0.006409	0.001831
12.737	-0.002136	0.031281	-0.21545	-0.001373	-0.016174	0.068512	-0.083313	0.003204	-0.005493	-0.026093	-0.007172	-0.003967	0.002136	0.067139	0.14328	0.011902	0.015564	-0.17136	-0.63339	0.11032	-0.006561	-0.058746	0.033722	0.014191	0.091248	-0.015717	-0.57083	0.000153	-0.56656	0.22232	-0.006256	-0.001221
